<svg width="22" height="20" viewBox="0 0 22 20" fill="none" xmlns="http://www.w3.org/2000/svg">
<ellipse cx="1.97633" cy="2.95314" rx="1.97633" ry="2.95314" transform="matrix(0.702177 -0.712002 0.702177 0.712002 0 12.1143)" fill="#FB923C"/>
<path d="M21.9648 10.0187C21.9648 16.3318 22.9348 15.0738 14.656 15.0738C7.34717 15.0738 7.34717 16.6521 7.34717 10.0187C7.34717 2.60323 10.6194 0 14.656 0C18.6925 0 21.9648 3.70555 21.9648 10.0187Z" fill="#FB923C"/>
<path d="M7.63477 18.1004C7.63477 17.422 8.17538 16.8672 8.85353 16.8496L14.6955 16.6982L20.5374 16.8496C21.2155 16.8672 21.7561 17.422 21.7561 18.1004C21.7561 18.7914 21.196 19.3516 20.505 19.3516H8.88595C8.19494 19.3516 7.63477 18.7914 7.63477 18.1004Z" fill="#FB923C"/>
</svg>
